<svg xmlns="http://www.w3.org/2000/svg" >
  <symbol id="icon-c"   viewBox="0 0 128 128">
    <path fill="#659AD3" d="M115.4 30.7L67.1 2.9c-.8-.5-1.9-.7-3.1-.7-1.2 0-2.3.3-3.1.7l-48 27.9c-1.7 1-2.9 3.5-2.9 5.4v55.7c0 1.1.2 2.4 1 3.5l106.8-62c-.6-1.2-1.5-2.1-2.4-2.7z"></path><path fill="#03599C" d="M10.7 95.3c.5.8 1.2 1.5 1.9 1.9l48.2 27.9c.8.5 1.9.7 3.1.7 1.2 0 2.3-.3 3.1-.7l48-27.9c1.7-1 2.9-3.5 2.9-5.4V36.1c0-.9-.1-1.9-.6-2.8l-106.6 62z"></path><path fill="#fff" d="M85.3 76.1C81.1 83.5 73.1 88.5 64 88.5c-13.5 0-24.5-11-24.5-24.5s11-24.5 24.5-24.5c9.1 0 17.1 5 21.3 12.5l13-7.5c-6.8-11.9-19.6-20-34.3-20-21.8 0-39.5 17.7-39.5 39.5s17.7 39.5 39.5 39.5c14.6 0 27.4-8 34.2-19.8l-12.9-7.6z"></path>
  </symbol>
  
  <symbol id="icon-cpp"   viewBox="0 0 256 288">
    <path fill="#5C8DBC"
                  d="M255.569 84.72c-.002-4.83-1.035-9.098-3.124-12.761-2.052-3.602-5.125-6.621-9.247-9.008-34.025-19.619-68.083-39.178-102.097-58.817-9.17-5.294-18.061-5.101-27.163.269C100.395 12.39 32.59 51.237 12.385 62.94 4.064 67.757.015 75.129.013 84.711 0 124.166.013 163.62 0 203.076c.002 4.724.991 8.909 2.988 12.517 2.053 3.711 5.169 6.813 9.386 9.254 20.206 11.703 88.02 50.547 101.56 58.536 9.106 5.373 17.997 5.565 27.17.269 34.015-19.64 68.075-39.198 102.105-58.817 4.217-2.44 7.333-5.544 9.386-9.252 1.994-3.608 2.985-7.793 2.987-12.518 0 0 0-78.889-.013-118.345">
                </path>
                <path fill="#1A4674"
                  d="M128.182 143.509L2.988 215.593c2.053 3.711 5.169 6.813 9.386 9.254 20.206 11.703 88.02 50.547 101.56 58.536 9.106 5.373 17.997 5.565 27.17.269 34.015-19.64 68.075-39.198 102.105-58.817 4.217-2.44 7.333-5.544 9.386-9.252l-124.413-72.074">
                </path>
                <path fill="#1A4674"
                  d="M91.101 164.861c7.285 12.718 20.98 21.296 36.69 21.296 15.807 0 29.58-8.687 36.828-21.541l-36.437-21.107-37.081 21.352">
                </path>
                <path fill="#1B598E"
                  d="M255.569 84.72c-.002-4.83-1.035-9.098-3.124-12.761l-124.263 71.55 124.413 72.074c1.994-3.608 2.985-7.793 2.987-12.518 0 0 0-78.889-.013-118.345">
                </path>
                <path fill="#FFF"
                  d="M248.728 148.661h-9.722v9.724h-9.724v-9.724h-9.721v-9.721h9.721v-9.722h9.724v9.722h9.722v9.721M213.253 148.661h-9.721v9.724h-9.722v-9.724h-9.722v-9.721h9.722v-9.722h9.722v9.722h9.721v9.721">
                </path>
                <path fill="#FFF"
                  d="M164.619 164.616c-7.248 12.854-21.021 21.541-36.828 21.541-15.71 0-29.405-8.578-36.69-21.296a42.062 42.062 0 0 1-5.574-20.968c0-23.341 18.923-42.263 42.264-42.263 15.609 0 29.232 8.471 36.553 21.059l36.941-21.272c-14.683-25.346-42.096-42.398-73.494-42.398-46.876 0-84.875 38-84.875 84.874 0 15.378 4.091 29.799 11.241 42.238 14.646 25.48 42.137 42.637 73.634 42.637 31.555 0 59.089-17.226 73.714-42.781l-36.886-21.371">
                </path>
  </symbol>

   <symbol viewBox="0 0 32 32" fill="none" xmlns="http://www.w3.org/2000/svg" id="icon-c#">
   <g id="SVGRepo_bgCarrier" stroke-width="0"></g><g id="SVGRepo_tracerCarrier" stroke-linecap="round" stroke-linejoin="round"></g><g id="SVGRepo_iconCarrier"> <path d="M27.6947 22.9999C27.883 22.6617 28 22.2807 28 21.9385V10.0613C28 9.71913 27.8831 9.33818 27.6947 9L16 16L27.6947 22.9999Z" fill="#7F3A86"></path> <path d="M17.0395 29.7433L26.9611 23.8047C27.2469 23.6336 27.5067 23.3382 27.695 23L16.0003 16L4.30566 23C4.49398 23.3382 4.75382 23.6337 5.03955 23.8047L14.9611 29.7433C15.5326 30.0855 16.468 30.0855 17.0395 29.7433Z" fill="#662579"></path> <path d="M27.6947 8.99996C27.5064 8.6617 27.2465 8.36629 26.9608 8.19521L17.0392 2.25662C16.4677 1.91446 15.5323 1.91446 14.9608 2.25662L5.03922 8.19521C4.46761 8.53729 4 9.37709 4 10.0613V21.9386C4 22.2807 4.11694 22.6618 4.30533 23L16 16L27.6947 8.99996Z" fill="#9A5196"></path> <path d="M16.0385 24C11.6061 24 8 20.4112 8 16C8 11.5888 11.6061 8 16.0385 8C18.8458 8 21.4674 9.47569 22.919 11.8618L19.4765 13.9265C18.7492 12.736 17.4399 12 16.0385 12C13.8222 12 12.0193 13.7944 12.0193 16C12.0193 18.2056 13.8222 20 16.0385 20C17.4362 20 18.7421 19.2681 19.4707 18.0832L22.9205 20.1359C21.4692 22.5234 18.8467 24 16.0385 24Z" fill="white"></path> <path fill-rule="evenodd" clip-rule="evenodd" d="M25.0001 13V13.9974H22.9999V13H22.0001V13.9974H21V15H22.0001V16.9948H21V18H22.0001V19H22.9999L23 18H25.0001V19H25.9999V18H27V17H25.9999V15H27V13.9974H25.9999V13H25.0001ZM25.0001 17V15H22.9999V16.9948L25.0001 17Z" fill="white"></path> </g>
   </symbol>

    <symbol id="icon-java"   viewBox="0 0 128 128">
                 <path fill="#0074BD" d="M52.581 67.817s-3.284 1.911 2.341 2.557c6.814.778 10.297.666 17.805-.753 0 0 1.979 1.237 4.735 2.309-16.836 7.213-38.104-.418-24.881-4.113zm-2.059-9.415s-3.684 2.729 1.945 3.311c7.28.751 13.027.813 22.979-1.103 0 0 1.373 1.396 3.536 2.157-20.352 5.954-43.021.469-28.46-4.365z"></path><path fill="#EA2D2E" d="M67.865 42.431c4.151 4.778-1.088 9.074-1.088 9.074s10.533-5.437 5.696-12.248c-4.519-6.349-7.982-9.502 10.771-20.378.001 0-29.438 7.35-15.379 23.552z"></path><path fill="#0074BD" d="M90.132 74.781s2.432 2.005-2.678 3.555c-9.716 2.943-40.444 3.831-48.979.117-3.066-1.335 2.687-3.187 4.496-3.576 1.887-.409 2.965-.334 2.965-.334-3.412-2.403-22.055 4.719-9.469 6.762 34.324 5.563 62.567-2.506 53.665-6.524zm-35.97-26.134s-15.629 3.713-5.534 5.063c4.264.57 12.758.439 20.676-.225 6.469-.543 12.961-1.704 12.961-1.704s-2.279.978-3.93 2.104c-15.874 4.175-46.533 2.23-37.706-2.038 7.463-3.611 13.533-3.2 13.533-3.2zM82.2 64.317c16.135-8.382 8.674-16.438 3.467-15.353-1.273.266-1.845.496-1.845.496s.475-.744 1.378-1.063c10.302-3.62 18.223 10.681-3.322 16.345 0 0 .247-.224.322-.425z"></path><path fill="#EA2D2E" d="M72.474 1.313s8.935 8.939-8.476 22.682c-13.962 11.027-3.184 17.313-.006 24.498-8.15-7.354-14.128-13.828-10.118-19.852 5.889-8.842 22.204-13.131 18.6-27.328z"></path><path fill="#0074BD" d="M55.749 87.039c15.484.99 39.269-.551 39.832-7.878 0 0-1.082 2.777-12.799 4.981-13.218 2.488-29.523 2.199-39.191.603 0 0 1.98 1.64 12.158 2.294z"></path><path fill="#EA2D2E" d="M94.866 100.181h-.472v-.264h1.27v.264h-.47v1.317h-.329l.001-1.317zm2.535.066h-.006l-.468 1.251h-.216l-.465-1.251h-.005v1.251h-.312v-1.581h.457l.431 1.119.432-1.119h.454v1.581h-.302v-1.251zm-44.19 14.79c-1.46 1.266-3.004 1.978-4.391 1.978-1.974 0-3.045-1.186-3.045-3.085 0-2.055 1.146-3.56 5.738-3.56h1.697v4.667h.001zm4.031 4.548v-14.077c0-3.599-2.053-5.973-6.997-5.973-2.886 0-5.416.714-7.473 1.622l.592 2.493c1.62-.595 3.715-1.147 5.771-1.147 2.85 0 4.075 1.147 4.075 3.521v1.779h-1.424c-6.921 0-10.044 2.685-10.044 6.723 0 3.479 2.058 5.456 5.933 5.456 2.49 0 4.351-1.028 6.088-2.533l.316 2.137h3.163v-.001zm13.452 0h-5.027l-6.051-19.689h4.391l3.756 12.099.835 3.635c1.896-5.258 3.24-10.596 3.912-15.733h4.271c-1.143 6.481-3.203 13.598-6.087 19.688zm19.288-4.548c-1.465 1.266-3.01 1.978-4.392 1.978-1.976 0-3.046-1.186-3.046-3.085 0-2.055 1.149-3.56 5.736-3.56h1.701v4.667h.001zm4.033 4.548v-14.077c0-3.599-2.059-5.973-6.999-5.973-2.889 0-5.418.714-7.475 1.622l.593 2.493c1.62-.595 3.718-1.147 5.774-1.147 2.846 0 4.074 1.147 4.074 3.521v1.779h-1.424c-6.923 0-10.045 2.685-10.045 6.723 0 3.479 2.056 5.456 5.93 5.456 2.491 0 4.349-1.028 6.091-2.533l.318 2.137h3.163v-.001zm-56.693 3.346c-1.147 1.679-3.005 3.008-5.037 3.757l-1.989-2.345c1.547-.794 2.872-2.075 3.489-3.269.532-1.063.753-2.43.753-5.701V92.891h4.284v22.173c0 4.375-.348 6.144-1.5 7.867z"></path>
  </symbol>

  <symbol id="icon-asp" viewBox="0 0 128 128" fill="#000000" width="200px" height="200px">
    <g id="SVGRepo_bgCarrier" stroke-width="0"></g><g id="SVGRepo_tracerCarrier" stroke-linecap="round" stroke-linejoin="round" stroke="#CCCCCC" stroke-width="0.128"></g><g id="SVGRepo_iconCarrier"><title>file_type_asp</title><path d="M12.786,23.5H9.852L9.01,20.342H5.676l-.8,3.158H2L6.053,8.49H8.619ZM6.555,16.891H8.1L7.32,13.867Z" style="fill:#0088b6"></path><path d="M16.742,23.749a3.706,3.706,0,0,1-3.05-1.349,7.1,7.1,0,0,1-1.3-3.909l-.046-.566,2.622-.368.062.5a3.409,3.409,0,0,0,.565,1.693,1.425,1.425,0,0,0,1.169.515,1.454,1.454,0,0,0,1.179-.448,1.36,1.36,0,0,0,.338-.911.919.919,0,0,0-.11-.478,1.251,1.251,0,0,0-.537-.438c-.147-.074-.534-.238-1.524-.592a5.006,5.006,0,0,1-2.355-1.5,5.121,5.121,0,0,1-1.016-3.216,5.536,5.536,0,0,1,.481-2.3,3.553,3.553,0,0,1,1.368-1.6,3.834,3.834,0,0,1,2.042-.527A3.6,3.6,0,0,1,19.6,9.532,5.645,5.645,0,0,1,20.7,13l.014.552-2.651.168L18,13.238a2.26,2.26,0,0,0-.395-1.2,1.274,1.274,0,0,0-1-.353,1.47,1.47,0,0,0-1.11.4.535.535,0,0,0-.15.409.612.612,0,0,0,.152.415,3.877,3.877,0,0,0,1.634.817,7.9,7.9,0,0,1,2.188,1.048,3.917,3.917,0,0,1,1.211,1.61,6.386,6.386,0,0,1,.443,2.517,6.254,6.254,0,0,1-.521,2.542A3.757,3.757,0,0,1,18.98,23.2,4.286,4.286,0,0,1,16.742,23.749Z" style="fill:#0088b6"></path><path d="M24.56,23.5h-2.7V8.49h3.5a7.985,7.985,0,0,1,2.41.227,3.122,3.122,0,0,1,1.587,1.555A6.479,6.479,0,0,1,30,13.322a7.047,7.047,0,0,1-.368,2.419A4.29,4.29,0,0,1,28.69,17.3a2.854,2.854,0,0,1-1.142.743,7.929,7.929,0,0,1-2.1.211h-.892Zm0-8.717h.688a3.214,3.214,0,0,0,1.4-.182,1.038,1.038,0,0,0,.434-.482,1.752,1.752,0,0,0,.152-.762,1.616,1.616,0,0,0-.209-.875.946.946,0,0,0-.571-.446,6.032,6.032,0,0,0-1.335-.086h-.563Z" style="fill:#0088b6"></path></g>  
  </symbol>

 <!-- <symbol id="icon-dotnet"   viewBox="0 0 24 24" >
    <path fill="#00AEEF" d="M0 15.808v.009c0 .187.075.356.197.478a.643.643 0 0 0 .47.205H.681a.657.657 0 0 0 .476-.204.673.673 0 0 0 .202-.481V15.806a.683.683 0 0 0-.201-.485.65.65 0 0 0-.478-.209H.653a.638.638 0 0 0-.456.209.684.684 0 0 0-.197.482v.005zM16.915 8.442v-.94l-4.434-.001v8.877h4.65l.005-.974h-3.608v-3.077h3.157v-.935h-3.157v-2.95zM4.464 9.309l-.007-.011zM24 7.501h-6.081v.94h2.515v7.937h1.022V8.441H24zM4.19 9.961a9.284 9.284 0 0 0-.053-1.26l.004.042h.038c.081.213.175.395.285.566l4.49 7.069h1.257V7.5H9.189v6.243l-.002.202c0 .389.023.772.068 1.149l-.004-.046h-.023a9.115 9.115 0 0 0-.355-.594L4.496 7.501H3.167v8.877H4.19V9.961z"></path>
  </symbol> -->

  <symbol id="icon-dotnet"   viewBox="0 0 256 256" >
  
    <g>
                  <rect fill="#512BD4" x="0" y="0" width="256" height="256"></rect>
                  <path
                    d="M45.6273965,163.555368 C43.8173193,163.555368 42.2787368,162.952421 41.0116491,161.745965 C39.7445614,160.508632 39.1110175,159.039439 39.1110175,157.338386 C39.1110175,155.605895 39.7445614,154.121544 41.0116491,152.884211 C42.2787368,151.646877 43.8173193,151.028211 45.6273965,151.028211 C47.4676772,151.028211 49.0213614,151.646877 50.2884491,152.884211 C51.5856842,154.121544 52.2343298,155.605895 52.2343298,157.338386 C52.2343298,159.039439 51.5856842,160.508632 50.2884491,161.745965 C49.0213614,162.952421 47.4676772,163.555368 45.6273965,163.555368 Z M117.988491,162.534737 L106.222596,162.534737 L75.2247018,113.631439 C74.4404211,112.394105 73.7914386,111.110175 73.2788772,109.780211 L73.0071579,109.780211 L73.0538292,110.08649 L73.0538292,110.08649 L73.0972819,110.436065 L73.0972819,110.436065 L73.1375158,110.828935 L73.1375158,110.828935 L73.174531,111.2651 L73.174531,111.2651 L73.2240187,112.000528 L73.2240187,112.000528 L73.2662643,112.83337 L73.2662643,112.83337 L73.3012678,113.763627 L73.3012678,113.763627 L73.3290292,114.791298 L73.3290292,114.791298 L73.3495485,115.916385 L73.3495485,115.916385 L73.3592047,116.720561 L73.3592047,116.720561 L73.3692632,118.920421 L73.3692632,118.920421 L73.3692632,162.534737 L62.9608421,162.534737 L62.9608421,96 L75.4958596,96 L105.453474,143.743439 L106.193575,144.911679 L106.193575,144.911679 L106.669684,145.679814 L106.669684,145.679814 L107.078107,146.355353 L107.078107,146.355353 L107.418845,146.938309 L107.418845,146.938309 L107.6084,147.275518 L107.6084,147.275518 L107.767873,147.571589 L107.767873,147.571589 L107.897263,147.826526 L107.897263,147.826526 L108.078035,147.826526 L108.043917,147.617702 L108.043917,147.617702 L107.979689,147.167509 L107.979689,147.167509 L107.920805,146.673926 L107.920805,146.673926 L107.867266,146.136952 C107.858788,146.04384 107.850533,145.948921 107.842501,145.852193 L107.796983,145.250133 L107.796983,145.250133 L107.756815,144.604681 L107.756815,144.604681 L107.721997,143.915839 L107.721997,143.915839 L107.679806,142.801218 L107.679806,142.801218 L107.649664,141.588968 L107.649664,141.588968 L107.631575,140.279088 L107.631575,140.279088 L107.625544,138.871579 L107.625544,138.871579 L107.625544,96 L117.988491,96 L117.988491,162.534737 Z M168.673123,162.534737 L132.244772,162.534737 L132.244772,96 L167.225263,96 L167.225263,105.372632 L143.015298,105.372632 L143.015298,124.209965 L165.324912,124.209965 L165.324912,133.536 L143.015298,133.536 L143.015298,153.208702 L168.673123,153.208702 L168.673123,162.534737 Z M220.444632,105.372632 L201.800421,105.372632 L201.800421,162.534737 L191.029895,162.534737 L191.029895,105.372632 L172.431158,105.372632 L172.431158,96 L220.444632,96 L220.444632,105.372632 Z"
                    fill="#FFFFFF"></path>
                </g>
  </symbol>
  <symbol id="icon-dotnetcore" viewBox="0 0 48 48" fill="#000000">
    <path fill="#6a1b9a" d="M44,24c0,5.694-2.381,10.831-6.2,14.481l-0.006,0.006C34.2,41.9,29.344,44,24,44 C12.956,44,4,35.044,4,24c0-5.338,2.087-10.188,5.5-13.775c0.006-0.013,0.013-0.019,0.019-0.025C13.169,6.381,18.306,4,24,4 C35.044,4,44,12.956,44,24z"></path><path fill="#7b1fa2" d="M38.375,37.862c-0.187,0.213-0.381,0.419-0.575,0.619l-0.006,0.006C34.2,41.9,29.344,44,24,44 C12.956,44,4,35.044,4,24c0-5.338,2.087-10.188,5.5-13.775c0.006-0.013,0.013-0.019,0.019-0.025c0.2-0.194,0.406-0.387,0.619-0.575 L38.375,37.862z"></path><path fill="#fff" d="M8.626,27.281c-0.236,0.004-0.463-0.091-0.625-0.262c-0.167-0.165-0.259-0.39-0.256-0.625 c-0.002-0.234,0.091-0.459,0.256-0.625c0.161-0.174,0.388-0.272,0.625-0.269c0.237-0.001,0.463,0.097,0.625,0.269 c0.169,0.164,0.263,0.39,0.262,0.625c0.002,0.236-0.093,0.462-0.262,0.625C9.087,27.188,8.861,27.283,8.626,27.281z"></path><path fill="#fff" d="M21.044,27.125h-1.638l-5.856-9.087c-0.146-0.224-0.267-0.463-0.363-0.712h-0.05 c0.056,0.519,0.077,1.041,0.062,1.562v8.237h-1.331V15.731h1.731l5.7,8.925c0.237,0.371,0.392,0.625,0.462,0.763h0.031 c-0.066-0.556-0.093-1.115-0.081-1.675v-8.012h1.331V27.125z"></path><path fill="#fff" d="M30.057,27.125h-6.056V15.731h5.775v1.206h-4.412v3.788h4.113v1.2h-4.113v3.95h4.7L30.057,27.125z"></path><path fill="#fff" d="M39.001,16.938h-3.312v10.188h-1.331V16.938h-3.275v-1.206h7.919V16.938z"></path><path fill="#f2f2f2" d="M20.326,34.875c-0.451,0.219-0.949,0.324-1.45,0.306c-0.674,0.03-1.327-0.232-1.794-0.719 c-0.459-0.514-0.701-1.186-0.675-1.875c-0.034-0.754,0.239-1.489,0.756-2.038c0.505-0.517,1.203-0.798,1.925-0.775 c0.427-0.015,0.853,0.06,1.25,0.219v0.625c-0.382-0.212-0.813-0.319-1.25-0.312c-0.557-0.016-1.094,0.213-1.469,0.625 c-0.39,0.444-0.592,1.022-0.562,1.612c-0.029,0.559,0.159,1.108,0.525,1.531c0.355,0.382,0.86,0.59,1.381,0.569 c0.48,0.013,0.954-0.109,1.369-0.35L20.326,34.875z"></path><path fill="#f2f2f2" d="M22.882,35.181c-0.503,0.016-0.989-0.187-1.331-0.556c-0.342-0.381-0.519-0.882-0.494-1.394 c-0.032-0.541,0.155-1.073,0.519-1.475c0.371-0.362,0.876-0.555,1.394-0.531c0.49-0.026,0.967,0.163,1.306,0.519 c0.332,0.4,0.5,0.912,0.469,1.431c0.026,0.527-0.156,1.043-0.506,1.438C23.89,34.989,23.395,35.197,22.882,35.181z M22.926,31.762 c-0.348-0.015-0.684,0.13-0.912,0.394c-0.24,0.31-0.36,0.696-0.338,1.088c-0.022,0.38,0.098,0.754,0.338,1.05 c0.231,0.26,0.566,0.402,0.912,0.388c0.34,0.02,0.67-0.118,0.894-0.375c0.227-0.31,0.338-0.691,0.312-1.075 c0.025-0.386-0.086-0.768-0.312-1.081C23.599,31.888,23.268,31.745,22.926,31.762z"></path><path fill="#f2f2f2" d="M27.663,31.95c-0.135-0.088-0.295-0.13-0.456-0.119c-0.256,0.009-0.49,0.145-0.625,0.363 c-0.186,0.295-0.276,0.64-0.256,0.988v1.912h-0.625v-3.75h0.625v0.781l0,0c0.069-0.242,0.205-0.459,0.394-0.625 c0.163-0.141,0.372-0.219,0.587-0.219c0.121-0.005,0.242,0.012,0.356,0.05V31.95z"></path><path fill="#f2f2f2" d="M31.326,33.375h-2.644c-0.018,0.349,0.096,0.693,0.319,0.963c0.234,0.234,0.557,0.356,0.887,0.338 c0.424-0.004,0.833-0.152,1.163-0.419v0.562c-0.386,0.255-0.844,0.38-1.306,0.356c-0.472,0.024-0.93-0.164-1.25-0.513 c-0.325-0.406-0.488-0.918-0.456-1.438c-0.022-0.52,0.154-1.03,0.494-1.425c0.313-0.362,0.772-0.564,1.25-0.55 c0.432-0.024,0.851,0.151,1.138,0.475c0.288,0.379,0.43,0.85,0.4,1.325L31.326,33.375z M30.701,32.869 c0.013-0.29-0.076-0.575-0.25-0.806c-0.173-0.196-0.426-0.302-0.688-0.288c-0.272-0.003-0.533,0.108-0.719,0.306 c-0.206,0.218-0.335,0.496-0.369,0.794L30.701,32.869z"></path>
  </symbol>
   <symbol id="icon-js" viewBox="0 0 48 48" fill="#000000" >
   <path fill="#ffd600" d="M6,42V6h36v36H6z"></path>
                <path fill="#000001"
                  d="M29.538 32.947c.692 1.124 1.444 2.201 3.037 2.201 1.338 0 2.04-.665 2.04-1.585 0-1.101-.726-1.492-2.198-2.133l-.807-.344c-2.329-.988-3.878-2.226-3.878-4.841 0-2.41 1.845-4.244 4.728-4.244 2.053 0 3.528.711 4.592 2.573l-2.514 1.607c-.553-.988-1.151-1.377-2.078-1.377-.946 0-1.545.597-1.545 1.377 0 .964.6 1.354 1.985 1.951l.807.344C36.452 29.645 38 30.839 38 33.523 38 36.415 35.716 38 32.65 38c-2.999 0-4.702-1.505-5.65-3.368L29.538 32.947zM17.952 33.029c.506.906 1.275 1.603 2.381 1.603 1.058 0 1.667-.418 1.667-2.043V22h3.333v11.101c0 3.367-1.953 4.899-4.805 4.899-2.577 0-4.437-1.746-5.195-3.368L17.952 33.029z">
                </path>

  </symbol>
   <symbol id="icon-html" viewBox="0 0 48 48" fill="#000000" >
    <path fill="#E65100" d="M41,5H7l3,34l14,4l14-4L41,5L41,5z"></path><path fill="#FF6D00" d="M24 8L24 39.9 35.2 36.7 37.7 8z"></path><path fill="#FFF" d="M24,25v-4h8.6l-0.7,11.5L24,35.1v-4.2l4.1-1.4l0.3-4.5H24z M32.9,17l0.3-4H24v4H32.9z"></path><path fill="#EEE" d="M24,30.9v4.2l-7.9-2.6L15.7,27h4l0.2,2.5L24,30.9z M19.1,17H24v-4h-9.1l0.7,12H24v-4h-4.6L19.1,17z"></path>
  </symbol>
   <symbol id="icon-css" viewBox="0 0 48 48" fill="#000000" >
    <path fill="#0277BD" d="M41,5H7l3,34l14,4l14-4L41,5L41,5z"></path><path fill="#039BE5" d="M24 8L24 39.9 35.2 36.7 37.7 8z"></path><path fill="#FFF" d="M33.1 13L24 13 24 17 28.9 17 28.6 21 24 21 24 25 28.4 25 28.1 29.5 24 30.9 24 35.1 31.9 32.5 32.6 21 32.6 21z"></path><path fill="#EEE" d="M24,13v4h-8.9l-0.3-4H24z M19.4,21l0.2,4H24v-4H19.4z M19.8,27h-4l0.3,5.5l7.9,2.6v-4.2l-4.1-1.4L19.8,27z"></path>
  </symbol>
   <symbol id="icon-bootstrap" viewBox="0 0 48 48" fill="#000000" >
    <path fill="#6c19ff" d="M6.391,10.671c-0.085-2.448,1.822-4.706,4.401-4.706h26.42c2.578,0,4.486,2.258,4.401,4.706	c-0.082,2.352,0.024,5.398,0.791,7.882c0.769,2.492,2.066,4.067,4.19,4.269v2.295c-2.124,0.202-3.421,1.777-4.19,4.269	c-0.767,2.484-0.873,5.53-0.791,7.882c0.085,2.448-1.822,4.706-4.401,4.706h-26.42c-2.578,0-4.486-2.258-4.4-4.706	c0.082-2.352-0.025-5.398-0.791-7.882c-0.769-2.492-2.069-4.067-4.194-4.269v-2.295c2.124-0.202,3.425-1.777,4.194-4.269	C6.367,16.07,6.473,13.023,6.391,10.671z"></path><linearGradient id="Is-EGaxKcc0Cic9QMqyzGa_EzPCiQUqWWEa_gr1" x1="17.846" x2="27.078" y1="-147.541" y2="-163.153" gradientTransform="matrix(1 0 0 -1 0 -132)" gradientUnits="userSpaceOnUse"><stop offset="0" stop-color="#fff"></stop><stop offset="1" stop-color="#f1e5fc"></stop></linearGradient><path fill="url(#Is-EGaxKcc0Cic9QMqyzGa_EzPCiQUqWWEa_gr1)" d="M25.042,34.016c4.366,0,6.997-2.138,6.997-5.664c0-2.665-1.877-4.595-4.665-4.9v-0.111	c2.048-0.333,3.655-2.235,3.655-4.359c0-3.026-2.389-4.997-6.03-4.997h-8.192v20.031H25.042z M19.994,16.525h4.238	c2.304,0,3.612,1.027,3.612,2.887c0,1.985-1.522,3.096-4.281,3.096h-3.57V16.525z M19.994,31.475v-6.594h4.21	c3.015,0,4.579,1.11,4.579,3.276c0,2.165-1.522,3.318-4.394,3.318H19.994z"></path>
  </symbol>
   <symbol id="icon-jira" viewBox="0 0 32 32" fill="#000000" >
    <g id="SVGRepo_bgCarrier" stroke-width="0"></g><g id="SVGRepo_tracerCarrier" stroke-linecap="round" stroke-linejoin="round"></g><g id="SVGRepo_iconCarrier"> <path d="M29.6647 15.2165L17.2075 3.1679L16 2L6.62269 11.0697L2.33526 15.2165C1.88825 15.6494 1.88825 16.3506 2.33526 16.7835L10.9025 25.0697L16 30L25.3773 20.9303L25.5225 20.7899L29.6647 16.7835C30.1118 16.3506 30.1118 15.6494 29.6647 15.2165ZM16 20.1394L11.7202 16L16 11.8606L20.2798 16L16 20.1394Z" fill="#2684FF"></path> <path fill-rule="evenodd" clip-rule="evenodd" d="M15.9999 11.8606C13.1979 9.15007 13.1842 4.75994 15.9694 2.0332L6.60352 11.0881L11.701 16.0184L15.9999 11.8606Z" fill="url(#paint0_linear_87_7658)"></path> <path fill-rule="evenodd" clip-rule="evenodd" d="M20.2912 15.9888L16 20.1392C17.3525 21.4466 18.1124 23.2202 18.1124 25.0695C18.1124 26.9189 17.3525 28.6925 16 29.9999L25.3888 20.9191L20.2912 15.9888Z" fill="url(#paint1_linear_87_7658)"></path> <defs> <linearGradient id="paint0_linear_87_7658" x1="15.2357" y1="7.67312" x2="8.09646" y2="10.7902" gradientUnits="userSpaceOnUse"> <stop offset="0.18" stop-color="#0052CC"></stop> <stop offset="1" stop-color="#2684FF"></stop> </linearGradient> <linearGradient id="paint1_linear_87_7658" x1="16.8177" y1="24.2786" x2="23.9441" y2="21.1836" gradientUnits="userSpaceOnUse"> <stop offset="0.18" stop-color="#0052CC"></stop> <stop offset="1" stop-color="#2684FF"></stop> </linearGradient> </defs> </g>
  </symbol>
   <symbol id="icon-visualstudio" viewBox="0 0 48 48" fill="#000000" >
     <linearGradient id="~jm6wMmI3aADOIa51_ZGPa_ezj3zaVtImPg_gr1" x1="37.672" x2="37.672" y1="3.68" y2="44.487" gradientUnits="userSpaceOnUse"><stop offset="0" stop-color="#c391f7"></stop><stop offset="1" stop-color="#b579f4"></stop></linearGradient><path fill="url(#~jm6wMmI3aADOIa51_ZGPa_ezj3zaVtImPg_gr1)" d="M44,10.781v26.403c0,1.147-0.653,2.193-1.684,2.696c-2.348,1.144-6.392,3.113-7.05,3.413	C34.33,43.721,33.742,44,33.007,44s-1.221-0.479-1.559-0.836C31.11,42.806,34,33,34,33V6.23c0,0-3.182-0.666-2.58-1.337	c0.603-0.671,1.107-0.899,1.736-0.899c0.725,0,1.311,0.323,1.971,0.641c0.468,0.225,4.732,2.271,7.174,3.443	C43.342,8.577,44,9.627,44,10.781z"></path><linearGradient id="~jm6wMmI3aADOIa51_ZGPb_ezj3zaVtImPg_gr2" x1="4.598" x2="37.92" y1="38.164" y2="4.842" gradientUnits="userSpaceOnUse"><stop offset=".019" stop-color="#742fb6"></stop><stop offset=".32" stop-color="#702db5"></stop><stop offset=".364" stop-color="#5d2596"></stop><stop offset=".38" stop-color="#5d2596"></stop><stop offset=".48" stop-color="#5d2596"></stop><stop offset=".485" stop-color="#60279a"></stop><stop offset=".517" stop-color="#6f2dab"></stop><stop offset=".556" stop-color="#7932b6"></stop><stop offset=".61" stop-color="#7e34bd"></stop><stop offset=".762" stop-color="#8035bf"></stop><stop offset=".806" stop-color="#7d34bb"></stop><stop offset=".851" stop-color="#7530ae"></stop><stop offset=".897" stop-color="#66299a"></stop><stop offset=".943" stop-color="#52207d"></stop><stop offset=".963" stop-color="#481b6e"></stop></linearGradient><path fill="url(#~jm6wMmI3aADOIa51_ZGPb_ezj3zaVtImPg_gr2)" d="M4,32c0,1.928,0.261,2.214,2.134,3.028C7.59,35.661,8.17,36,8.559,36	c0.469,0,0.91-0.323,1.327-0.664S34,15.525,34,15.525V5.546c0-1.198-1.674-1.676-2.467-0.778c0,0-24.791,27.531-25.533,28.244	S5.767,31.119,4,32z"></path><linearGradient id="~jm6wMmI3aADOIa51_ZGPc_ezj3zaVtImPg_gr3" x1="4.405" x2="35.886" y1="25.413" y2="30.112" gradientUnits="userSpaceOnUse"><stop offset=".002" stop-color="#9c55d4"></stop><stop offset=".003" stop-color="#9c55d4"></stop><stop offset=".337" stop-color="#9751d2"></stop><stop offset=".737" stop-color="#8847cb"></stop><stop offset=".848" stop-color="#8343c8"></stop><stop offset=".89" stop-color="#8042c3"></stop><stop offset=".938" stop-color="#773db6"></stop><stop offset=".988" stop-color="#68369f"></stop><stop offset="1" stop-color="#643499"></stop></linearGradient><path fill="url(#~jm6wMmI3aADOIa51_ZGPc_ezj3zaVtImPg_gr3)" d="M4.62,13.681c0.317-0.152,2.934-1.322,3.256-1.463C8.254,12.053,8.39,12,8.669,12	c0.308,0,0.518,0.117,1.001,0.514C10.345,13.068,34,32.483,34,32.483v9.759c0,1.675-1.744,1.847-2.728,0.741	C30.574,42.199,6.389,15.434,6.389,15.434S4,16.641,4,15.587C4,14.166,4.276,13.847,4.62,13.681z"></path><linearGradient id="~jm6wMmI3aADOIa51_ZGPd_ezj3zaVtImPg_gr4" x1="6.5" x2="6.5" y1="34.157" y2="14.799" gradientUnits="userSpaceOnUse"><stop offset="0" stop-color="#5c1d9c"></stop><stop offset="1" stop-color="#561b90"></stop></linearGradient><path fill="url(#~jm6wMmI3aADOIa51_ZGPd_ezj3zaVtImPg_gr4)" d="M9,18.323v11.412c0,0-2.73,2.999-3.34,3.659C5.118,33.981,4,33.797,4,32.148v-16.72	c0-1.251,1.131-1.378,2.098-0.323C6.273,15.296,9,18.323,9,18.323z"></path>
  </symbol>
   <symbol id="icon-vscode" viewBox="0 0 48 48" fill="#000000" >
    <path fill="#29b6f6" d="M44,11.11v25.78c0,1.27-0.79,2.4-1.98,2.82l-8.82,4.14L34,33V15L33.2,4.15l8.82,4.14 C43.21,8.71,44,9.84,44,11.11z"></path><path fill="#0277bd" d="M9,33.896L34,15V5.353c0-1.198-1.482-1.758-2.275-0.86L4.658,29.239 c-0.9,0.83-0.849,2.267,0.107,3.032c0,0,1.324,1.232,1.803,1.574C7.304,34.37,8.271,34.43,9,33.896z"></path><path fill="#0288d1" d="M9,14.104L34,33v9.647c0,1.198-1.482,1.758-2.275,0.86L4.658,18.761 c-0.9-0.83-0.849-2.267,0.107-3.032c0,0,1.324-1.232,1.803-1.574C7.304,13.63,8.271,13.57,9,14.104z"></path>
  </symbol>

  <symbol id="icon-git"  viewBox="0 0 128 128" fill="#000000" >
              <path fill="#31251C" d="M76.397 55.676c-2.737 0-4.775 1.344-4.775 4.579 0 2.437 1.343 4.129 4.628 4.129 2.784 0 4.676-1.641 4.676-4.23 0-2.934-1.693-4.478-4.529-4.478zm-5.471 22.84c-.648.795-1.294 1.64-1.294 2.637 0 1.989 2.536 2.587 6.021 2.587 2.885 0 6.816-.202 6.816-2.885 0-1.595-1.892-1.693-4.281-1.843l-7.262-.496zm14.725-22.69c.895 1.145 1.842 2.737 1.842 5.026 0 5.522-4.329 8.756-10.597 8.756-1.594 0-3.037-.198-3.932-.447l-1.642 2.637 4.875.297c8.608.549 13.682.798 13.682 7.413 0 5.723-5.024 8.955-13.682 8.955-9.006 0-12.438-2.289-12.438-6.218 0-2.24.996-3.431 2.737-5.076-1.643-.694-2.189-1.937-2.189-3.281 0-1.095.547-2.09 1.443-3.036.896-.944 1.891-1.891 3.084-2.985-2.438-1.194-4.278-3.781-4.278-7.464 0-5.721 3.781-9.65 11.393-9.65 2.14 0 3.435.197 4.578.498h9.703v4.228l-4.579.347zm13.332-9.04c-2.837 0-4.479-1.643-4.479-4.48 0-2.833 1.642-4.377 4.479-4.377 2.886 0 4.527 1.543 4.527 4.377.001 2.837-1.641 4.48-4.527 4.48zm-6.42 29.9v-3.929l2.539-.348c.696-.1.795-.249.795-.997V56.785c0-.546-.148-.896-.647-1.044l-2.687-.946.547-4.028h10.301v20.646c0 .798.048.896.796.997l2.538.348v3.929H92.563v-.001zm33.857-1.93c-2.141 1.043-5.274 1.99-8.112 1.99-5.92 0-8.158-2.386-8.158-8.011V55.7c0-.297 0-.497-.399-.497h-3.482v-4.428c4.38-.499 6.12-2.688 6.667-8.111h4.728v7.067c0 .347 0 .498.398.498h7.015v4.975h-7.413v11.89c0 2.935.697 4.079 3.383 4.079 1.395 0 2.836-.347 4.03-.795l1.343 4.378z"></path><path fill="#F34F29" d="M52.7 61.7L29.951 38.952a3.355 3.355 0 00-4.744 0l-4.724 4.724 5.991 5.992a3.983 3.983 0 014.1.956 3.988 3.988 0 01.947 4.125l5.775 5.775a3.988 3.988 0 014.125 6.593 3.992 3.992 0 01-6.516-4.342l-5.386-5.386-.001 14.174a3.992 3.992 0 011.056 6.401 3.993 3.993 0 11-4.339-6.518V57.141a3.99 3.99 0 01-2.167-5.236l-5.906-5.908L2.563 61.595a3.356 3.356 0 000 4.747L25.312 89.09a3.357 3.357 0 004.746 0L52.7 66.446a3.355 3.355 0 000-4.746z"></path><path fill="none" d="M1.58 37.928h124.84v52.143H1.58z"></path>
  </symbol>

  <symbol id="icon-github" viewBox="0 0 128 128" fill="#000000" >
              <g fill="#181616"><path fill-rule="evenodd" clip-rule="evenodd" d="M64 5.103c-33.347 0-60.388 27.035-60.388 60.388 0 26.682 17.303 49.317 41.297 57.303 3.017.56 4.125-1.31 4.125-2.905 0-1.44-.056-6.197-.082-11.243-16.8 3.653-20.345-7.125-20.345-7.125-2.747-6.98-6.705-8.836-6.705-8.836-5.48-3.748.413-3.67.413-3.67 6.063.425 9.257 6.223 9.257 6.223 5.386 9.23 14.127 6.562 17.573 5.02.542-3.903 2.107-6.568 3.834-8.076-13.413-1.525-27.514-6.704-27.514-29.843 0-6.593 2.36-11.98 6.223-16.21-.628-1.52-2.695-7.662.584-15.98 0 0 5.07-1.623 16.61 6.19C53.7 35 58.867 34.327 64 34.304c5.13.023 10.3.694 15.127 2.033 11.526-7.813 16.59-6.19 16.59-6.19 3.287 8.317 1.22 14.46.593 15.98 3.872 4.23 6.215 9.617 6.215 16.21 0 23.194-14.127 28.3-27.574 29.796 2.167 1.874 4.097 5.55 4.097 11.183 0 8.08-.07 14.583-.07 16.572 0 1.607 1.088 3.49 4.148 2.897 23.98-7.994 41.263-30.622 41.263-57.294C124.388 32.14 97.35 5.104 64 5.104z"></path><path d="M26.484 91.806c-.133.3-.605.39-1.035.185-.44-.196-.685-.605-.543-.906.13-.31.603-.395 1.04-.188.44.197.69.61.537.91zm2.446 2.729c-.287.267-.85.143-1.232-.28-.396-.42-.47-.983-.177-1.254.298-.266.844-.14 1.24.28.394.426.472.984.17 1.255zM31.312 98.012c-.37.258-.976.017-1.35-.52-.37-.538-.37-1.183.01-1.44.373-.258.97-.025 1.35.507.368.545.368 1.19-.01 1.452zm3.261 3.361c-.33.365-1.036.267-1.552-.23-.527-.487-.674-1.18-.343-1.544.336-.366 1.045-.264 1.564.23.527.486.686 1.18.333 1.543zm4.5 1.951c-.147.473-.825.688-1.51.486-.683-.207-1.13-.76-.99-1.238.14-.477.823-.7 1.512-.485.683.206 1.13.756.988 1.237zm4.943.361c.017.498-.563.91-1.28.92-.723.017-1.308-.387-1.315-.877 0-.503.568-.91 1.29-.924.717-.013 1.306.387 1.306.88zm4.598-.782c.086.485-.413.984-1.126 1.117-.7.13-1.35-.172-1.44-.653-.086-.498.422-.997 1.122-1.126.714-.123 1.354.17 1.444.663zm0 0"></path></g>
  </symbol>

  <symbol id="icon-sqlserver" viewBox="0 0 48 48" fill="#000000" >
                <path fill="#cfd8dc" d="M23.084,11.277c-1.633-2.449-1.986-5.722-2.063-7.067c-4.148,0.897-8.269,2.506-8.031,3.691 c0.03,0.149,0.218,0.328,0.53,0.502l-0.488,0.873c-0.596-0.334-0.931-0.719-1.022-1.179c-0.269-1.341,1.25-2.554,4.642-3.709 c2.316-0.789,4.652-1.26,4.751-1.279l0.597-0.12L22,3.6c0,0.042,0.026,4.288,1.916,7.123L23.084,11.277z"></path><path fill="#cfd8dc" d="M24.751,43H24.5c-8.192,0-17.309-2.573-18.386-6.879c-0.657-2.63,1.492-5.536,6.214-8.401 l0.52,0.854c-4.249,2.579-6.296,5.172-5.763,7.305c0.935,3.738,9.575,6.068,17.153,6.12c0.901-1.347,5.742-9.26,2.979-19.873 l0.967-0.252c3.149,12.092-3.218,20.837-3.282,20.924L24.751,43z"></path><path fill="#cfd8dc" d="M9.931,39.306c-0.539,0-0.806-0.059-0.85-0.07c-0.176-0.043-0.314-0.178-0.362-0.352 c-0.049-0.174,0.001-0.361,0.129-0.488c0.072-0.072,7.197-7.208,8.159-12.978l0.986,0.164c-0.827,4.964-5.715,10.623-7.656,12.707 c1.939-0.111,6.835-1.019,16.234-6.28c-7.335-0.804-8.495-6.676-8.507-6.739l0.983-0.181c0.047,0.246,1.226,6.011,9.244,6.011 c0.003,0,0.005,0,0.008,0l0,0c0.227,0,0.424,0.152,0.482,0.37c0.06,0.218-0.036,0.449-0.231,0.563 C17.315,38.542,11.867,39.305,9.931,39.306z"></path><path fill="#cfd8dc" d="M14.524,41.7c-0.207,0-0.395-0.128-0.468-0.325c-0.079-0.211-0.007-0.45,0.177-0.582 c0.034-0.025,1.813-1.338,3.706-4.228c-0.728-0.322-1.465-0.698-2.196-1.137c-0.888-0.533-1.559-1.105-2.06-1.691 c-2.57,0.678-4.942,0.946-7.025,0.769l0.084-0.996c1.876,0.159,4.009-0.063,6.321-0.64c-1.573-2.688-0.129-5.356-0.109-5.392 l0.874,0.487c-0.067,0.122-1.265,2.37,0.249,4.633c2.201-0.632,4.549-1.567,6.979-2.782c0.559-1.835,0.996-3.922,1.225-6.276 c0.016-0.161,0.108-0.304,0.248-0.385s0.311-0.088,0.458-0.021c0.032,0.015,3.264,1.491,5.604,2.454 c0.17,0.07,0.288,0.228,0.307,0.411c0.02,0.183-0.063,0.361-0.216,0.465c-2.289,1.56-4.563,2.913-6.778,4.042 c-0.702,2.225-1.571,4.077-2.459,5.591c3.702,1.383,6.915,1.404,6.956,1.404c0.228,0,0.427,0.154,0.484,0.375 c0.057,0.221-0.042,0.452-0.241,0.563c-4.54,2.522-11.767,3.232-12.072,3.261C14.556,41.699,14.54,41.7,14.524,41.7z M18.909,36.967c-1.04,1.614-2.062,2.773-2.826,3.53c1.998-0.294,5.501-0.938,8.408-2.139 C23.099,38.187,21.084,37.807,18.909,36.967z M14.767,33.431c0.393,0.392,0.883,0.775,1.49,1.14 c0.736,0.442,1.483,0.817,2.22,1.135c0.754-1.264,1.501-2.781,2.142-4.568C18.598,32.1,16.636,32.868,14.767,33.431z M23.202,24.329c-0.205,1.768-0.521,3.381-0.913,4.85c1.66-0.885,3.354-1.896,5.062-3.026 C25.802,25.497,24.099,24.734,23.202,24.329z"></path><path fill="#cfd8dc" d="M17.924,10.6c-0.117,0-0.233-0.042-0.325-0.12c-1.61-1.378-3.505-4.182-3.585-4.301 c-0.129-0.191-0.109-0.446,0.046-0.616c0.154-0.171,0.408-0.211,0.608-0.102c0.011,0.003,0.938,0.385,7.217,1.431 c0.181,0.03,0.33,0.156,0.39,0.328c0.061,0.172,0.022,0.364-0.1,0.5c-1.758,1.953-3.979,2.813-4.073,2.848 C18.044,10.589,17.983,10.6,17.924,10.6z M15.647,6.746c0.631,0.849,1.54,1.996,2.372,2.769c0.511-0.233,1.657-0.818,2.744-1.798 C18.18,7.276,16.604,6.962,15.647,6.746z"></path><path fill="#b71c1c" d="M21.843,24.4c-0.068,0-0.137-0.014-0.201-0.042c-0.199-0.088-0.319-0.294-0.296-0.51 c0.292-2.749-3.926-3.852-3.969-3.862c-0.174-0.044-0.312-0.179-0.359-0.352s0.002-0.359,0.129-0.486 c0.207-0.207,5.139-5.098,11.327-7.784c0.173-0.075,0.369-0.047,0.515,0.07c0.145,0.118,0.212,0.307,0.174,0.489 c-1.186,5.744-6.71,12.044-6.944,12.309C22.12,24.341,21.982,24.4,21.843,24.4z M18.455,19.285 c1.184,0.445,3.258,1.475,3.783,3.356c1.449-1.808,4.542-5.973,5.697-9.934C23.548,14.817,19.854,17.999,18.455,19.285z"></path><path fill="#b71c1c" d="M13.079,28.36l-0.475-0.88c1.883-1.015,4.04-2.883,5.807-5.054c-1.504,1.03-2.365,1.735-2.392,1.758 l-0.639-0.77c0.039-0.032,1.764-1.447,4.631-3.22c0.787-1.266,1.392-2.568,1.703-3.816c0.053-0.212,0.099-0.417,0.136-0.615 c-1.925-0.687-3.701-1.094-4.921-1.269c-0.185-0.026-0.339-0.153-0.401-0.328c-0.062-0.175-0.021-0.371,0.104-0.507 c0.085-0.092,2.116-2.268,4.654-3.463c0.197-0.093,0.433-0.047,0.581,0.114c0.067,0.073,1.44,1.615,1.091,4.805 c1.155,0.45,2.345,0.997,3.491,1.648c2.759-1.24,5.892-2.356,9.229-3.03c0.172-0.034,0.363,0.028,0.481,0.168 c0.117,0.14,0.149,0.333,0.083,0.503c-1.3,3.332-4.786,6.891-4.934,7.041c-0.101,0.102-0.239,0.153-0.383,0.148 c-0.143-0.008-0.275-0.076-0.365-0.188c-1.12-1.408-2.584-2.574-4.163-3.523c-2.175,1.004-4.101,2.078-5.684,3.049 C18.693,24.084,15.644,26.979,13.079,28.36z M27.492,17.396c1.29,0.832,2.491,1.81,3.484,2.948 c0.828-0.898,2.815-3.168,3.942-5.422C32.268,15.532,29.76,16.415,27.492,17.396z M22.799,16.122 c-0.033,0.163-0.071,0.33-0.113,0.5c-0.21,0.839-0.544,1.701-0.972,2.561c1.096-0.626,2.309-1.272,3.618-1.898 C24.494,16.841,23.639,16.455,22.799,16.122z M18.048,13.672c1.111,0.218,2.48,0.574,3.941,1.086 c0.152-1.843-0.346-2.972-0.647-3.472C19.966,12.004,18.761,13.014,18.048,13.672z"></path><path fill="#b71c1c" d="M18.05,18.5c0,4.38-3.65,7.86-6.28,10.4c-0.44,0.43-1.93,0.5-1.93,0.5 c0.37-0.38,0.79-0.78,1.24-1.21c2.5-2.42,5.97-5.73,5.97-9.69c0-4.69-1.89-6.54-3.38-8.02c-0.66-0.67-1.22-1.31-1.56-2.09 l0.31-0.13c0.34,0.15,0.73,0.32,1.03,0.45c0.24,0.35,0.56,0.69,0.93,1.06C15.91,11.3,18.05,13.4,18.05,18.5z"></path><path fill="#b71c1c" d="M42.935,19.794c0,0-0.605,0.086-0.775,0.106c-8.76,0.97-17.8,3.49-22.97,5.56 c-1.87,0.75-3.81,1.66-5.58,2.68c-0.01,0.01-0.02,0.01-0.04,0.02C12.53,28.76,10,30,7.95,31.09c3-3.19,8.62-5.65,10.86-6.55 c5.07-2.03,13.78-4.48,22.35-5.53c-1.01-1.18-3.48-3.68-8.34-5.54c-2.84-1.1-7.16-1.72-10.97-2.27c-6.06-0.87-9.51-1.45-9.84-3.1 c-0.07-0.33-0.02-0.66,0.13-0.98c0.33,0.54,0.8,0.92,1.11,1.14c0.15,0.1,0.26,0.16,0.3,0.18l0.01,0.01 c1.42,0.75,5.25,1.3,8.44,1.76c3.86,0.56,8.23,1.19,11.18,2.32c6.87,2.65,9.24,6.44,9.34,6.6 C42.61,19.28,42.935,19.794,42.935,19.794z"></path>
  </symbol>

  <symbol id="icon-mysql" viewBox="0 0 128 128"  fill="#000000" >
            <path fill="#00618A" d="M2.001 90.458h4.108v-16.223l6.36 14.143c.75 1.712 1.777 2.317 3.792 2.317s3.003-.605 3.753-2.317l6.36-14.143v16.223h4.108v-16.196c0-1.58-.632-2.345-1.936-2.739-3.121-.974-5.215-.131-6.163 1.976l-6.241 13.958-6.043-13.959c-.909-2.106-3.042-2.949-6.163-1.976-1.304.395-1.936 1.159-1.936 2.739v16.197zM33.899 77.252h4.107v8.938c-.038.485.156 1.625 2.406 1.661 1.148.018 8.862 0 8.934 0v-10.643h4.117c.019 0-.004 14.514-.004 14.574.022 3.58-4.441 4.357-6.499 4.417h-12.972v-2.764c.022 0 12.963.003 12.995-.001 2.645-.279 2.332-1.593 2.331-2.035v-1.078h-8.731c-4.062-.037-6.65-1.81-6.683-3.85-.002-.187.089-9.129-.001-9.219z"></path><path fill="#E48E00" d="M56.63 90.458h11.812c1.383 0 2.727-.289 3.793-.789 1.777-.816 2.646-1.922 2.646-3.372v-3.002c0-1.185-.987-2.292-2.923-3.028-1.027-.396-2.292-.605-3.517-.605h-4.978c-1.659 0-2.449-.5-2.646-1.606-.039-.132-.039-.237-.039-.369v-1.87c0-.105 0-.211.039-.342.197-.843.632-1.08 2.094-1.212l.395-.026h11.733v-2.738h-11.535c-1.659 0-2.528.105-3.318.342-2.449.764-3.517 1.975-3.517 4.082v2.396c0 1.844 2.095 3.424 5.61 3.793.396.025.79.053 1.185.053h4.267c.158 0 .316 0 .435.025 1.304.105 1.856.343 2.252.816.237.237.315.475.315.737v2.397c0 .289-.197.658-.592.974-.355.316-.948.527-1.738.58l-.435.026h-11.338v2.738zM100.511 85.692c0 2.817 2.094 4.397 6.32 4.714.395.026.79.052 1.185.052h10.706v-2.738h-10.784c-2.41 0-3.318-.606-3.318-2.055v-14.168h-4.108v14.195zM77.503 85.834v-9.765c0-2.48 1.742-3.985 5.186-4.46.356-.053.753-.079 1.108-.079h7.799c.396 0 .752.026 1.147.079 3.444.475 5.187 1.979 5.187 4.46v9.765c0 2.014-.74 3.09-2.445 3.792l4.048 3.653h-4.771l-3.274-2.956-3.296.209h-4.395c-.752 0-1.543-.105-2.414-.343-2.613-.712-3.88-2.085-3.88-4.355zm4.434-.237c0 .132.039.265.079.423.237 1.135 1.307 1.768 2.929 1.768h3.732l-3.428-3.095h4.771l2.989 2.7c.552-.295.914-.743 1.041-1.32.039-.132.039-.264.039-.396v-9.368c0-.105 0-.238-.039-.37-.238-1.056-1.307-1.662-2.89-1.662h-6.216c-1.82 0-3.008.792-3.008 2.032v9.288z"></path><path fill="#00618A" d="M122.336 66.952c-2.525-.069-4.454.166-6.104.861-.469.198-1.216.203-1.292.79.257.271.297.674.502 1.006.394.637 1.059 1.491 1.652 1.938.647.489 1.315 1.013 2.011 1.437 1.235.754 2.615 1.184 3.806 1.938.701.446 1.397 1.006 2.082 1.509.339.247.565.634 1.006.789v-.071c-.231-.294-.291-.698-.503-1.006l-.934-.934c-.913-1.212-2.071-2.275-3.304-3.159-.982-.705-3.18-1.658-3.59-2.801l-.072-.071c.696-.079 1.512-.331 2.154-.503 1.08-.29 2.045-.215 3.16-.503l1.508-.432v-.286c-.563-.578-.966-1.344-1.58-1.867-1.607-1.369-3.363-2.737-5.17-3.879-1.002-.632-2.241-1.043-3.304-1.579-.356-.181-.984-.274-1.221-.575-.559-.711-.862-1.612-1.293-2.441-.9-1.735-1.786-3.631-2.585-5.458-.544-1.245-.9-2.473-1.579-3.59-3.261-5.361-6.771-8.597-12.208-11.777-1.157-.677-2.55-.943-4.021-1.292l-2.37-.144c-.481-.201-.983-.791-1.436-1.077-1.802-1.138-6.422-3.613-7.756-.358-.842 2.054 1.26 4.058 2.011 5.099.527.73 1.203 1.548 1.58 2.369.248.54.29 1.081.503 1.652.521 1.406.976 2.937 1.651 4.236.341.658.718 1.351 1.149 1.939.264.36.718.52.789 1.077-.443.62-.469 1.584-.718 2.369-1.122 3.539-.699 7.938.934 10.557.501.805 1.681 2.529 3.303 1.867 1.419-.578 1.103-2.369 1.509-3.95.092-.357.035-.621.215-.861v.072l1.293 2.585c.957 1.541 2.654 3.15 4.093 4.237.746.563 1.334 1.538 2.298 1.867v-.073h-.071c-.188-.291-.479-.411-.719-.646-.562-.551-1.187-1.235-1.651-1.867-1.309-1.776-2.465-3.721-3.519-5.745-.503-.966-.94-2.032-1.364-3.016-.164-.379-.162-.953-.502-1.148-.466.72-1.149 1.303-1.509 2.154-.574 1.36-.648 3.019-.861 4.739l-.144.071c-1.001-.241-1.352-1.271-1.724-2.154-.94-2.233-1.115-5.83-.287-8.401.214-.666 1.181-2.761.789-3.376-.187-.613-.804-.967-1.148-1.437-.427-.579-.854-1.341-1.149-2.011-.77-1.741-1.129-3.696-1.938-5.457-.388-.842-1.042-1.693-1.58-2.441-.595-.83-1.262-1.44-1.724-2.442-.164-.356-.387-.927-.144-1.293.077-.247.188-.35.432-.431.416-.321 1.576.107 2.01.287 1.152.479 2.113.934 3.089 1.58.468.311.941.911 1.508 1.077h.646c1.011.232 2.144.071 3.088.358 1.67.508 3.166 1.297 4.524 2.155 4.139 2.614 7.522 6.334 9.838 10.772.372.715.534 1.396.861 2.154.662 1.528 1.496 3.101 2.154 4.596.657 1.491 1.298 2.996 2.227 4.237.488.652 2.374 1.002 3.231 1.364.601.254 1.585.519 2.154.861 1.087.656 2.141 1.437 3.16 2.155.509.362 2.076 1.149 2.154 1.798zM90.237 39.593c-.526-.01-.899.058-1.293.144v.071h.072c.251.517.694.849 1.005 1.293l.719 1.508.071-.071c.445-.313.648-.814.646-1.58-.179-.188-.205-.423-.359-.646-.204-.3-.602-.468-.861-.719z"></path>
  </symbol>
   <symbol id="icon-jquery" viewBox="0 -198 512 512"  fill="#000000" >
  <g id="SVGRepo_bgCarrier" stroke-width="0"></g><g id="SVGRepo_tracerCarrier" stroke-linecap="round" stroke-linejoin="round"></g><g id="SVGRepo_iconCarrier"> <defs> </defs> <g stroke="none" stroke-width="1" fill="none" fill-rule="evenodd"> <g> <path d="M489.718192,8.64613026 L511.13882,8.76383142 C511.13882,8.76383142 471.313656,62.7278468 468.06216,67.1259464 C467.005794,68.5501302 465.401134,70.0861302 464.588016,71.9899464 C462.531188,76.7764598 460.419432,87.2754022 460.419432,87.2754022 L440.82023,87.3725058 C440.82023,87.3725058 443.86967,76.4292414 443.744122,70.600092 C443.633288,65.5075556 441.034054,60.421885 439.57554,55.314636 C438.102314,50.1455938 436.101394,40.02918 436.101394,40.02918 L456.25085,40.02918 L459.029578,51.1460536 L489.718192,8.64613026" fill="#ffffff"> </path> <path d="M449.157394,20.0268506 C453.110192,22.4102988 455.535816,35.5555556 455.535816,35.5555556 C455.535816,35.5555556 434.8518,35.8605978 423.595648,35.8605978 L413.868628,35.8605978 L402.057318,87.2754022 L383.993134,87.2754022 C383.993134,87.2754022 395.234574,31.400705 397.888736,21.2705594 C398.749916,17.9916015 403.78066,18.5536245 412.277702,18.5536245 L425.846682,18.5536245 C434.608552,18.5536245 444.849532,17.4354636 449.157394,20.0268506" fill="#ffffff"> </path> <path d="M365.059924,45.0667892 C365.059924,45.0667892 365.622928,41.7662528 363.149242,37.9448888 C361.037486,34.6865288 359.08561,33.929318 353.527172,33.7557088 C337.831724,33.2623448 338.136766,44.89318 338.136766,44.89318 L365.059924,45.0667892 L365.059924,45.0667892 Z M382.082452,31.7479234 C384.382528,40.0438928 379.99816,59.5391264 379.99816,59.5391264 C379.99816,59.5391264 357.104306,59.1565978 344.56423,59.5391264 C340.66538,59.6578084 335.997548,59.1154022 334.83721,60.9289808 C333.204108,63.4713256 335.433564,67.383908 337.323648,69.0366284 C339.499158,70.9404444 343.736398,71.1562298 345.258666,71.3504368 C355.436874,72.6431878 376.7398,71.6839234 376.7398,71.6839234 L373.04987,88.0247662 C373.04987,88.0247662 342.94584,89.5333026 327.88892,85.940475 C324.915984,85.2323066 322.12941,83.8012568 320.246192,81.7718928 C319.73223,81.2167356 319.286928,80.459525 318.80043,79.8062836 C318.412016,79.284475 317.280122,77.5689808 316.772046,76.213456 C313.33321,67.0494406 317.175172,49.4923524 320.940628,40.0850882 C321.378084,38.9943908 321.927356,37.6123832 322.505072,36.4373334 C323.226974,34.971954 323.838038,33.3182528 324.414774,32.4423602 C324.803188,31.838161 325.2838,31.4487662 325.686928,30.8788966 C326.151846,30.2050574 326.693272,29.551816 327.194482,28.9691954 C328.583356,27.3566896 330.160552,26.2169502 332.057502,24.800613 C338.330974,20.1033564 349.68423,16.4556015 363.32285,17.8523218 C368.457564,18.3800153 376.212108,20.2141916 379.99816,25.4950498 C381.012352,26.905502 381.512582,29.7048276 382.082452,31.7479234 L382.082452,31.7479234 L382.082452,31.7479234 Z" fill="#ffffff"> </path> <path d="M299.22869,18.4908506 L316.744582,18.3868812 C316.744582,18.3868812 306.983234,64.6944368 302.008398,87.2754022 L281.858942,87.2754022 C267.776,87.2754022 255.234942,89.019341 249.899158,78.9372568 C244.72325,69.1484444 249.662774,53.0498698 251.983448,42.1134712 C253.623418,34.3736398 257.076966,18.5536245 257.076966,18.5536245 L275.224522,18.3868812 C275.224522,18.3868812 270.096674,43.0168276 267.96334,55.314636 C267.199264,59.7196016 265.62305,63.8675862 267.268904,67.1259464 C268.832368,70.22541 271.020628,70.4470804 277.69036,70.600092 C279.803096,70.649134 286.722942,70.600092 286.722942,70.600092 L299.22869,18.4908506" fill="#ffffff"> </path> <path d="M217.243954,51.8404904 C219.07813,45.3237702 221.752888,38.2577778 221.412536,32.3864522 C221.04472,26.106115 215.778574,20.3878008 212.380934,19.1862682 C202.14682,15.5728429 192.565946,20.624184 188.758314,24.7437242 C183.83154,30.0804904 182.164107,36.3127662 180.420169,44.89318 C179.121533,51.2637548 178.058299,57.9893946 180.420169,62.957364 C184.602483,71.7398314 197.64377,69.8222836 211.685518,69.9056552 C213.769808,64.3197548 215.49315,58.0453026 217.243954,51.8404904 L217.243954,51.8404904 L217.243954,51.8404904 Z M241.561992,26.1335786 C243.562912,40.6824214 235.885854,56.7398008 230.59813,70.7040614 C235.989824,71.1905594 240.714544,70.6285364 241.054896,71.030682 C241.40898,71.5524904 237.441472,87.6991264 236.058482,87.7403218 C231.779066,87.852138 217.59902,87.969839 211.685518,87.969839 C192.391356,87.969839 174.340904,89.2272796 165.135693,79.6326744 C161.397701,75.7348046 158.81318,69.0503602 158.187402,64.3472184 C157.144766,56.4955708 158.451249,47.8523832 160.271693,40.7245978 C161.918529,34.2902682 164.030284,28.2178698 167.219985,22.659433 C175.327632,8.50685058 189.432153,-1.99797701 213.075372,0.426666666 C217.660812,0.89943295 224.247172,2.9072184 228.360828,5.28968582 C228.645272,5.45740996 229.639846,6.2489502 229.868384,6.38822988 C235.42682,9.92514942 240.491892,18.3662835 241.561992,26.1335786 L241.561992,26.1335786 L241.561992,26.1335786 Z" fill="#ffffff"> </path> <path d="M156.193349,18.5742222 C155.026146,23.88941 153.858943,29.9137472 152.628966,35.166161 L133.174927,35.166161 C134.682483,29.3438774 135.835954,23.5559234 137.34351,18.4908506 C143.56892,18.4908506 149.356874,18.5742222 156.193349,18.5742222" fill="#ffffff"> </path> <path d="M132.48049,40.02918 L151.239111,40.02918 C148.787004,53.6060076 143.930851,75.5052874 140.123218,90.748567 C137.73977,100.288245 136.148843,107.250268 129.700782,112.286897 C129.124046,112.739065 128.79154,112.524261 128.311908,112.982314 C127.123126,114.115188 121.627464,115.428536 118.584889,115.761042 C113.637517,116.296582 108.044751,115.830682 101.965487,115.706115 C103.556414,109.890697 105.356261,102.908077 106.773579,97.6968582 C121.593134,99.489839 121.968797,85.4824214 124.837762,71.9899464 C126.49833,64.1942068 131.529073,43.1561072 132.48049,40.02918" fill="#ffffff"> </path> <g transform="translate(0.000000, 8.827586)" fill="#21609B"> <path d="M88.7084138,66.6365058 L88.3062682,67.678161 C81.4550804,81.0176246 69.3171494,89.2027586 52.0033104,89.5637088 C43.9093946,89.7304522 36.1970268,87.6540076 31.1594176,85.3951264 C20.286774,80.5105288 11.1423755,71.4514636 6.14792338,61.7725058 C-1.01615326,47.897502 -2.30792338,28.596475 12.5881379,14.180046 C12.8176552,14.180046 10.7814253,17.3059923 11.0109425,17.3059923 L10.6009502,18.6399387 C-0.133394636,52.2465594 32.9376858,81.046069 65.0857932,77.7523984 C72.8118928,76.9608582 82.6644598,72.729502 88.7084138,66.6365058"> </path> <path d="M69.2543754,52.7399234 C77.3424062,52.7958314 85.7904062,49.0156628 90.792705,43.7083218 C86.416184,54.8183296 73.7436934,61.9598468 56.7486284,59.6882146 C42.5195402,57.7843984 28.9642912,43.4650728 27.5675708,29.1173026 C26.5465134,18.675249 30.1864214,12.4429732 36.183295,4.88361686 C34.0990038,8.83739464 33.3202146,11.8868352 33.1260076,13.8318467 C30.8475096,36.4196782 51.1695938,52.6222222 69.2543754,52.7399234"> </path> <path d="M89.980567,24.6848736 C88.7231264,27.5685518 81.483525,33.0151724 78.2869578,33.6958774 C65.6281992,36.3922146 57.5205518,30.389456 53.2744828,23.558866 C52.64282,22.5378084 51.4756168,19.7522146 51.2666974,19.0430651 C49.619862,13.443433 50.3770728,4.9738544 55.290115,0.58948659 C53.810023,4.75806896 53.5942376,9.60049042 54.3730268,12.7480153 C54.8448122,14.6518314 56.282728,17.9739464 57.7216246,20.0641226 C60.340475,23.8717548 62.0010422,24.7966896 65.3643524,26.8182068 C66.878774,27.7284292 68.5040306,28.4581762 69.2063142,28.659249 C72.3950344,29.5969348 79.1275402,32.0706206 89.980567,24.6848736"> </path> </g> </g> </g> </g>
  </symbol>
  <symbol id="icon-SignIn" viewBox="0 0 448 512" >
    <path fill="#0d6efd" d="M224 256A128 128 0 1 0 224 0a128 128 0 1 0 0 256zm-45.7 48C79.8 304 0 383.8 0 482.3C0 498.7 13.3 512 29.7 512l388.6 0c16.4 0 29.7-13.3 29.7-29.7C448 383.8 368.2 304 269.7 304l-91.4 0z"/>
 </symbol>
  <symbol id="icon-SignUp" viewBox="0 0 640 512" >
      <path fill="#198754" d="M96 128a128 128 0 1 1 256 0A128 128 0 1 1 96 128zM0 482.3C0 383.8 79.8 304 178.3 304l91.4 0C368.2 304 448 383.8 448 482.3c0 16.4-13.3 29.7-29.7 29.7L29.7 512C13.3 512 0 498.7 0 482.3zM504 312l0-64-64 0c-13.3 0-24-10.7-24-24s10.7-24 24-24l64 0 0-64c0-13.3 10.7-24 24-24s24 10.7 24 24l0 64 64 0c13.3 0 24 10.7 24 24s-10.7 24-24 24l-64 0 0 64c0 13.3-10.7 24-24 24s-24-10.7-24-24z"/>
  </symbol>
</svg>
